<svg xmlns="http://www.w3.org/2000/svg" version="1.1" width="600px" height="600px" xlink="http://www.w3.org/1999/xlink" style="overflow:hidden!important;"><g id="svga-group-wrapper" transform="scale(3 3)"><g id="svga-group-backs-single"><path id="SvgjsPath5448" d="M225 225H-25V-25h250V225z" fill="#ecf0f1" stroke-width="none" opacity="1"></path></g><g id="svga-group-subwrapper" transform="matrix(0.84999948 0 0 0.84999948 14.957442923608625 17.376377333655796) translate(9.999999983634211e-8 0)"><g id="svga-group-hair-back" ><path id="SvgjsPath5677" d="M100.5,100.5h-1v-1h1V100.5z" fill="#2a232b" stroke-width="none" opacity="1"></path></g><g id="svga-group-humanbody-single"><path id="SvgjsPath2893" d="M195.417 199.778c-2.196-4.746-8.195-11.779-14.86-13.722 -8.239-2.403-26.837-5.308-33.733-6.923 -5.528-1.296-16.662-11.294-20.564-14.65 -0.7-0.6-1.273-1.839-1.287-2.76 -0.139-10.864 4.195-39.724 4.195-39.724H100 70.833c0 0 4.334 28.859 4.193 39.724 -0.011 0.921-0.587 2.16-1.285 2.76 -3.902 3.356-15.036 13.354-20.564 14.65 -6.897 1.615-25.495 4.619-33.733 7.022 -6.667 1.942-12.664 8.876-14.86 13.622 -3.708 8.008-4.584 22.5-4.584 35h100 100C200 222.278 199.123 207.786 195.417 199.778z" fill="#f0c7b1" stroke-width="none" opacity="1" stroke="none"></path><path id="SvgjsPath2894" d="M159.156 184.058c24.342 3.542 34.586 8.708 37.794 50.721H200c0-12.5-0.877-26.992-4.583-35 -2.196-4.746-8.195-11.779-14.86-13.722 -8.239-2.403-26.837-5.308-33.733-6.923 -5.528-1.296-18.242-12.069-21.643-16.35 3.36 4.704 12.791 15.605 21.054 18.46C150.188 182.61 153.48 183.232 159.156 184.058zM53.766 181.244c8.263-2.854 17.693-13.756 21.054-18.46 -3.4 4.28-16.114 15.054-21.643 16.35 -6.896 1.615-25.494 4.619-33.733 7.022 -6.665 1.942-12.664 8.876-14.86 13.622 -3.706 8.008-4.583 22.5-4.583 35h3.05c3.188-41.744 13.475-47.183 37.794-50.721C46.52 183.232 49.813 182.61 53.766 181.244z" fill="#ffe4d6" stroke-width="none" opacity="1" stroke="none"></path><path id="SvgjsPath2895" d="M95.646 197.62c0 0-5.074-1.609-7.083-2.379 -10.449-4.009-44.395-6.607-44.395-6.607s35.754 1.419 43.644 2.779c-0.458-4.767-3.017-20.004-3.017-20.004s5.149 16.815 6.409 21.057C91.878 194.734 95.646 197.62 95.646 197.62zM106.445 196.278c-0.089 0.073-0.191 0.168-0.302 0.268C106.256 196.461 106.358 196.372 106.445 196.278zM95.646 197.62c0 0 2.893 2.992 4.347 3.03 1.91 0.051 4.828-2.899 6.151-4.104 -1.265 0.957-4.159 1.391-5.31 1.436C99.504 198.033 95.646 197.62 95.646 197.62zM116.664 190.101c-1.545 0.248-4.386 0.789-4.386 0.789l2.287-14.89c-0.646 3.071-4.474 16.211-8.12 20.278 1.91-1.616 6.158-2.391 8.324-2.704 10.236-1.484 10.232-1.483 41.062-4.94C155.831 188.634 126.76 188.479 116.664 190.101z" fill="#e1ac8f" stroke-width="none" opacity="1" stroke="none"></path><path id="SvgjsPath2896" d="M195.417 199.778c-2.196-4.746-8.195-11.779-14.86-13.722 -8.239-2.403-26.837-5.308-33.733-6.923 -5.528-1.296-16.662-11.294-20.564-14.65 -0.7-0.6-1.273-1.839-1.287-2.76 -0.139-10.864 4.195-39.724 4.195-39.724H100 70.833c0 0 4.334 28.859 4.193 39.724 -0.011 0.921-0.587 2.16-1.285 2.76 -3.902 3.356-15.036 13.354-20.564 14.65 -6.897 1.615-25.495 4.619-33.733 7.022 -6.667 1.942-12.664 8.876-14.86 13.622 -3.708 8.008-4.584 22.5-4.584 35h100 100C200 222.278 199.123 207.786 195.417 199.778z" fill="none" stroke="#c27b55" stroke-width="1.5" opacity="1"></path></g><g id="svga-group-chinshadow-single"><path id="SvgjsPath5327" d="M75.602 162.779c7.126 5.302 15.497 9.087 24.401 9.087 8.902 0 17.269-3.781 24.394-9.08 -0.104-0.358-0.17-0.718-0.175-1.053 -0.088-6.862 1.561-20.607 2.82-30.025 -15.654-1.97-38.431-1.97-54.084 0 1.26 9.419 2.908 23.163 2.819 30.024C75.773 162.063 75.707 162.42 75.602 162.779z" fill="url(#SvgjsLinearGradient5328)" opacity="1"></path></g><g id="svga-group-clothes-single" ><path id="SvgjsPath5567" d="M-3.682 236.192c-2.914-24.293 8.022-47.09 34.496-54.611 7.77-2.208 5.691-3.341 6.867-3.41 -0.039-0.211-0.045-0.2-0.045-0.63h-0.036c0.087-8.03 9.028-6.453 11.587-6.984 10.121-2.158 13.558-12.786 25.115-9.985 0.284 2.437 0.075 5.248-1.371 15.663 10.899 23.466 22.722 21.437 26.925 34.571 3.815-11.746 17.339-13.617 27.306-34.576 -0.655-5.884-2.083-11.033-1.482-15.935l0.057-0.042c7.744-2.583 11.127 0.874 14.21 3.854 9.397 9.083 14.382 3.325 19.085 7.457 1.871 1.659 2.547 3.997 2.547 6.518 21.412 3.11 45.974 9.898 41.089 57.481l0.096 0.104C181.094 235.667 57.546 241.095-3.682 236.192z" fill="#335529" stroke-width="none" opacity="1" stroke="none"></path><path id="SvgjsPath5568" d="M100.268 209.685c4.229-10.638 16.946-13.132 26.543-32.755 0.098-0.108 0.347-0.591 0.656-1.237 -0.164-1.826-0.372-3.747-1.213-5.757 -0.522-3.35-0.939-6.489-0.587-9.535 1.974 0.578 3.842 1.262 5.12 2.66 1.882 2.052 0.455 5.609-1.346 9.042C126.063 186.844 117.594 197.493 100.268 209.685zM169.282 198.859c2.938 10.376 4.895 26.928 2.544 37.445 1.962-0.045 2.686-0.097 4.506-0.138C177.146 225.12 175.154 207.48 169.282 198.859zM137.604 200.735c-12.805 7.48-25.687 10.358-37.321 20.291 -11.64-9.904-24.647-11.637-37.453-19.108 -5.87-2.36-14.874-10.699-20.377-16.572 17.313 26.284 29.706 18.823 57.434 36.538 27.736-17.715 40.205-11.692 57.516-37.974C151.9 189.782 143.476 198.39 137.604 200.735zM99.81 210.936c-4.238-10.644-16.459-14.383-26.056-34.006 -0.093-0.108-0.343-0.591-0.652-1.237 0.156-1.826-0.262-3.841 0.586-5.857 0.521-3.358 0.748-6.092 0.393-9.132 -1.969 0.574-3.025 0.959-4.303 2.357 -1.88 2.052-0.453 5.609 1.347 9.042C74.502 186.844 82.479 198.74 99.81 210.936zM27.163 197.688c-4.305 9.396-4.34 27.432-3.528 38.479 1.821 0.041 2.548 0.093 4.506 0.138C25.791 225.787 26.379 208.26 27.163 197.688zM99.888 212.964c16.389-4.909 33.813-13.894 48.305-35.847 -13.084 17.643-32.525 28.063-47.926 34.455 -15.89-5.762-34.915-17.221-46.006-32.635C67.257 200.226 83.508 208.055 99.888 212.964z" fill="#24461b" stroke-width="none" opacity="1" stroke="none"></path><path id="SvgjsPath5569" d="M202.762 235.667c-0.115 0-0.256 0.001-0.374 0.001 -0.427-48.615-27.497-50.574-42.48-53.725 -2.345 0-3.563-6.505-5.288-8.24 -1.467-1.475-12.769-1.475-16.348-11.169 0.583 0.513 1.131 1.052 1.674 1.573 9.397 9.083 14.382 3.325 19.085 7.457 1.871 1.659 2.547 3.997 2.547 6.518 21.412 3.11 45.974 9.898 41.089 57.481L202.762 235.667zM-3.968 236.84c0.114 0 0.255 0.001 0.376 0.001 4.759-38.632 16.029-50.811 43.543-55.364 3.451-1.313 1.634-3.81 3.362-5.544 1.467-1.468 9.627-1.5 20.924-13.389 -0.582 0.513-3.075 1.042-3.615 1.563 -9.398 9.083-16.485 6.51-19.088 7.457 -3.209 1.188-3.707 4.028-3.707 6.546 -21.414 3.111-44.161 14.974-41.702 58.626L-3.968 236.84z" fill="#44643a" stroke-width="none" opacity="1" stroke="none"></path><path id="SvgjsPath5570" d="M161.69 177.978c0-9.858-9.265-7.895-13.529-8.812 -9.409-2.02-9.113-12.916-22.582-8.985 -0.574 4.657 0.516 8.738 1.473 15.997 -9.877 20.755-23.576 23.093-27.196 34.245 -3.957-12.38-16.045-11.134-26.81-34.171 1.498-10.838 1.648-13.354 1.36-15.774 -10.271-2.349-12.588 4.32-21.876 8.776 -5.637 2.642-7.229 0.263-12.067 2.633 -2.007 0.968-3.018 3.609-2.946 5.767 -0.013 0.01 0 0.01 0 0.01 0 0.139 0 0.267 0.023 0.396 -1.175 0.082 0.546 0.074-7.323 1.346 -25.363 4.1-36.61 25.534-34.005 56.906 11.89 0 1.011 4.382 183.147-0.077 8.456-0.214 22.799-0.447 23.402-0.447C208.321 189.265 184.836 181.568 161.69 177.978zM-3.624 236.057c2.579-36.004 8.018-50.026 41.046-57.329 17.978 29.839 39.98 25.499 62.232 42.189 -20.166-16.771-41.302-14.549-61.622-42.583 -0.228-2.354 1-4.943 3.535-5.959 1.796-0.702 3.72-0.498 5.6-0.488 7.087 0.054 12.546-5.502 17.793-9.578 2.499-1.67 6.22-1.752 9.2-1.292 0.231 3.874-1.262 9.721-1.762 13.845 -1.042-2.295-2.029-4.664-3.015-7.022 12.47 36.624 24.903 28.334 30.461 43.525 -1.177-0.327-21.014-7.468-36.822-23.188 -3.358-3.325-10.011-10.656-10.516-11.34 19.573 26.51 32.079 27.86 47.391 34.691 0 0.01 0.021 0.035 0.021 0.048 0.012 0.036 0.068 0.221 0.086 0.256 0.074-0.033 0.158-0.07 0.239-0.091 0.026-0.022 0.047-0.033 0.08-0.033 2.122-1.043 16.065-5.902 26.681-13.2 10.927-7.517 23.39-23.821 22.451-22.64 -18.253 18.573-21.075 22.785-49.212 35.67 -0.027 0-0.048-0.01-0.069-0.021 -0.022-0.131-0.064-0.257-0.107-0.387 0.011-0.062 0.032-0.121 0.054-0.178 4.948-13.579 19.476-8.33 31.51-45.554 -1.232 3.216-2.527 6.382-3.979 9.486 -0.457-5.455-2.042-9.756-1.865-14.247 2.084-0.693 7.742-1.022 9.308 0.542 6.529 5.586 7.059 9.677 17.696 9.677 3.411 0.02 7.871 0.45 8.375 6.708 -0.627 0.922-5.291 6.431-9.703 10.809 -15.438 15.368-29.249 15.664-50.619 32.007 0.521 0 1.605-1.131 2.029-1.418 16.712-11.864 28.719-11.677 44.085-24.249 7.082-5.785 13.897-15.044 14.63-16.222 0.022 0.013 0.059 0.013 0.079 0.013 28.198 4.853 42.321 15.462 40.764 57.069C76.043 234.783 58.884 238.145-3.624 236.057z" fill="#0e2707" stroke-width="none" opacity="1" stroke="none"></path></g><g id="svga-group-head" ><g id="svga-group-ears-left" ><path id="SvgjsPath5331" d="M47.001 83.231c-1.376-2.453-5.638-8.48-9.98-7.003 -2.749 0.935-3.293 3.993-3.735 6.693 -0.588 3.591 0.471 10.694 1.389 13.26 0.881 2.467 3.533 7.23 5.264 9.045 2.13 2.225 4.775 9.324 5.194 10.061 0.66 1.162 1.536 2.911 4.122 2.692 2.853-0.244 4.584-1.85 5.856-2.121C58.253 115.192 50.582 89.616 47.001 83.231z" fill="#f0c7b1" stroke="#c27b55" stroke-width="1.5" opacity="1"></path><path id="SvgjsPath5332" d="M44.197 98.104c-0.132-0.581 0.007-1.56 0.142-2.504 0.124-0.861 0.24-1.675 0.169-2.251 -0.267-2.154-1.773-6.249-2.757-8.467 -1.132-2.554-2.963-5.77-5.262-6.599 -0.95-0.343-1.575 0.067-1.938 0.484 -0.266 0.305-0.325 0.665-0.238 0.707 0.086 0.042 0.285-0.254 0.572-0.535 0.235-0.229 0.579-0.426 1.051-0.385 -0.19 1.073-1.167 6.883-0.744 10.845 0.333 3.115 1.593 5.442 1.79 5.791 0.029 0.367 0.077 0.726 0.148 1.075 0.929 4.547 4.971 9.717 6.378 11.409 0.259 0.313 0.531 0.497 0.598 0.423 0.066-0.076-0.094-0.387-0.353-0.7 -1.388-1.679-5.391-6.831-6.289-11.218 -0.952-4.656 2.318-11.556 3.048-13.017 0.371 0.685 0.687 1.344 0.93 1.893 0.19 0.431 0.402 0.936 0.619 1.479 -0.429 0.762-3.434 6.32-2.338 10.767 0.406 1.641 2.235 3.755 3.447 4.333 0.667 0.32 0.919 0.797 1.209 1.349 0.336 0.64 0.718 1.365 1.828 1.892 0.225 0.108 0.429 0.151 0.61 0.151 0.313 0 0.551-0.135 0.725-0.293 0.018 0.28 0.017 0.64 0.009 0.97 -0.012 0.431 0.042 0.783 0.137 0.791 0.094 0.008 0.196-0.332 0.207-0.76 0.016-0.526 0.013-1.177-0.072-1.488 -0.248-0.917-1.008-1.953-1.813-3.048C45.221 100.116 44.403 99.003 44.197 98.104zM36.95 94.073c-2.177-7.139 0.656-13.3 1.144-14.28 0.85 0.822 1.6 1.919 2.21 2.995C39.86 83.646 37.041 89.271 36.95 94.073zM46.341 104.515c-1.004-0.475-1.339-1.115-1.666-1.733 -0.293-0.559-0.598-1.136-1.369-1.505 -0.168-0.081-0.352-0.203-0.542-0.343 -2.486-6.263 0.272-9.001 0.963-9.562 0.211 0.766 0.369 1.468 0.439 2.031 0.063 0.517-0.052 1.339-0.167 2.134 -0.142 0.985-0.286 2.004-0.137 2.664 0.226 0.982 1.069 2.131 1.884 3.242 0.723 0.986 1.466 2.003 1.721 2.832C47.359 104.439 47.017 104.836 46.341 104.515z" fill="#c27b55" stroke-width="none" opacity="1"></path></g><g id="svga-group-ears-right" ><path id="SvgjsPath5333" d="M152.736 83.231c1.377-2.453 5.639-8.48 9.98-7.003 2.75 0.935 3.293 3.993 3.736 6.693 0.588 3.591-0.471 10.694-1.389 13.26 -0.881 2.467-3.533 7.23-5.266 9.045 -2.129 2.225-4.775 9.324-5.193 10.061 -0.658 1.162-1.535 2.911-4.121 2.692 -2.854-0.244-4.584-1.85-5.857-2.121C141.484 115.192 149.156 89.616 152.736 83.231z" fill="#f0c7b1" stroke="#c27b55" stroke-width="1.5" opacity="1"></path><path id="SvgjsPath5334" d="M153.727 101.196c-0.805 1.096-1.564 2.131-1.813 3.048 -0.086 0.311-0.088 0.962-0.072 1.488 0.012 0.428 0.113 0.768 0.207 0.76s0.148-0.36 0.137-0.791c-0.008-0.331-0.008-0.69 0.01-0.97 0.174 0.158 0.412 0.293 0.725 0.293 0.182 0 0.385-0.043 0.609-0.151 1.109-0.526 1.492-1.252 1.828-1.892 0.289-0.552 0.543-1.028 1.209-1.349 1.213-0.578 3.041-2.692 3.447-4.333 1.096-4.447-1.908-10.005-2.338-10.767 0.217-0.544 0.43-1.049 0.619-1.479 0.244-0.549 0.559-1.208 0.93-1.893 0.73 1.46 4 8.361 3.049 13.017 -0.896 4.387-4.9 9.539-6.289 11.218 -0.258 0.313-0.418 0.624-0.352 0.7 0.066 0.074 0.338-0.109 0.598-0.423 1.406-1.692 5.449-6.862 6.379-11.409 0.07-0.35 0.117-0.708 0.146-1.075 0.197-0.349 1.459-2.676 1.791-5.791 0.422-3.961-0.555-9.772-0.744-10.845 0.473-0.042 0.814 0.156 1.051 0.385 0.287 0.281 0.486 0.577 0.572 0.535 0.086-0.042 0.027-0.402-0.238-0.707 -0.363-0.417-0.988-0.827-1.938-0.484 -2.299 0.83-4.131 4.045-5.262 6.599 -0.984 2.218-2.49 6.313-2.758 8.467 -0.072 0.576 0.045 1.39 0.17 2.251 0.135 0.945 0.273 1.924 0.141 2.504C155.336 99.003 154.518 100.116 153.727 101.196zM159.434 82.787c0.611-1.075 1.361-2.173 2.211-2.995 0.488 0.98 3.32 7.141 1.145 14.28C162.697 89.271 159.879 83.646 159.434 82.787zM152.27 104.275c0.254-0.829 0.998-1.846 1.721-2.832 0.816-1.111 1.658-2.26 1.885-3.242 0.148-0.66 0.004-1.679-0.137-2.664 -0.115-0.795-0.23-1.617-0.166-2.134 0.068-0.563 0.227-1.266 0.438-2.031 0.691 0.561 3.449 3.299 0.965 9.562 -0.191 0.14-0.375 0.263-0.543 0.343 -0.771 0.369-1.074 0.946-1.369 1.505 -0.326 0.618-0.662 1.258-1.666 1.733C152.721 104.836 152.379 104.439 152.27 104.275z" fill="#c27b55" stroke-width="none" opacity="1"></path></g><g id="svga-group-faceshape-wrap" ><g id="svga-group-faceshape-single" ><path id="SvgjsPath5324" d="M100.002 0.867C66.381 0.813 39.186 28.343 39.134 62.366c-0.008 5.403 0.669 10.645 1.953 15.641l0.004 0c0.011 0.054 8.713 39.241 14.519 51.175 6.073 12.487 23.814 32.685 44.392 32.685 20.582 0 38.32-20.197 44.392-32.685 5.805-11.935 14.507-51.122 14.519-51.175l0.005 0c1.283-4.997 1.961-10.238 1.952-15.641C160.819 28.343 133.623 0.813 100.002 0.867z" fill="#f0c7b1" stroke-width="none" opacity="1"></path><path id="SvgjsPath5325" d="M120.754 4.512c21.441 9.489 36.411 31.135 36.45 56.363 0.008 5.403-0.669 10.645-1.953 15.641l-0.005 0c-0.011 0.054-8.713 39.24-14.519 51.177 -5.709 11.738-21.608 32.469-40.725 32.469s-35.016-20.73-40.725-32.469c-5.806-11.937-14.507-51.123-14.519-51.177l-0.004 0c-1.284-4.997-1.962-10.238-1.953-15.641 0.038-25.229 15.008-46.874 36.45-56.363 -23.386 8.55-40.076 31.208-40.117 57.854 -0.008 5.403 0.669 10.645 1.953 15.641l0.004 0c0.011 0.054 8.713 39.241 14.519 51.175 6.073 12.487 23.814 32.685 44.392 32.685 20.579 0 38.319-20.197 44.392-32.685 5.805-11.935 14.507-51.122 14.519-51.175l0.005 0c1.283-4.997 1.961-10.238 1.952-15.641C160.83 35.72 144.14 13.062 120.754 4.512z" fill="#e8b9a0" stroke-width="none" opacity="1"></path><path id="SvgjsPath5326" d="M100.002 0.867C66.381 0.813 39.186 28.343 39.134 62.366c-0.008 5.403 0.669 10.645 1.953 15.641l0.004 0c0.011 0.054 8.713 39.241 14.519 51.175 6.073 12.487 23.814 32.685 44.392 32.685 20.582 0 38.32-20.197 44.392-32.685 5.805-11.935 14.507-51.122 14.519-51.175l0.005 0c1.283-4.997 1.961-10.238 1.952-15.641C160.819 28.343 133.623 0.813 100.002 0.867z" fill="none" stroke="#c27b55" stroke-width="1.5" opacity="1"></path></g></g><g id="svga-group-mouth-single" ><path id="SvgjsPath5317" d="M100.2 142.947c-2.832 0.144-3.644-2.753-3.644-2.753s3.931 0.565 6.991-0.353C103.548 139.842 102.692 142.822 100.2 142.947z" fill="url(#SvgjsLinearGradient5318)" opacity="1"></path><path id="SvgjsPath5321" d="M100.488 140.76c-1.984 0.1-3.765-0.077-3.877-0.089 -0.138-0.014-0.238-0.136-0.224-0.272 0.015-0.138 0.143-0.233 0.274-0.224 0.041 0.003 4.096 0.405 6.738-0.337 0.131-0.032 0.271 0.041 0.309 0.174s-0.04 0.27-0.173 0.308C102.601 140.582 101.517 140.708 100.488 140.76z" fill="#c27b55" stroke-width="none" opacity="1"></path><path id="SvgjsPath5322" d="M82.5 130.299c0 0 12.532 1.486 16.718 1.499 4.553 0.012 19.282-1.499 19.282-1.499 -4.258 3.534-8.943 6.932-19.555 6.999C89.453 137.359 87.021 133.912 82.5 130.299z" fill="#ffffff" stroke-width="none" opacity="1"></path><path id="SvgjsPath5323" d="M82.5 130.299c0 0 12.532 1.486 16.718 1.499 4.553 0.012 19.282-1.499 19.282-1.499 -4.258 3.534-8.943 6.932-19.555 6.999C89.453 137.359 87.021 133.912 82.5 130.299z" fill="none" stroke="#c27b55" stroke-width="0.75" opacity="1"></path></g><g id="svga-group-eyes-left" ><g id="svga-group-eyesback-left"><path id="SvgjsPath5571" d="M83.071 89.125c-3.293-0.784-4.969 1.059-9.809 1.166 -8.057 0.177-9.938-0.618-11.199-2.638 -0.523-0.837-1.023-1.928-1.264-2.601l-0.1-4.149c1.328-3.949 19.541-4.352 25.9 1.784 0.287 0.666 0.433 1.287 0.465 1.867 -0.19 0.958-0.512 1.878-0.947 2.749C85.411 88.113 84.355 88.729 83.071 89.125z" fill="url(#SvgjsRadialGradient5572)" opacity="1"></path></g><g id="svga-group-eyesiriswrapper-left" transform="translate(0.25 0.25)"><g id="svga-group-eyesiriscontrol-left" ><g id="svga-group-eyesiris-left" ><path id="SvgjsPath5166" d="M79.788 85.588c-0.869 3.192-4.16 5.073-7.358 4.196 -3.195-0.876-5.083-4.178-4.212-7.371 0.868-3.195 4.167-5.076 7.362-4.198C78.773 79.09 80.658 82.392 79.788 85.588z" fill="#270907" stroke="#000000" stroke-width="0.5" opacity="1"></path><path id="SvgjsPath5167" d="M73.265 80.413l-0.156-0.279c-0.548 0.218-1.076 0.445-1.575 0.687l0.37 0.894 -0.047 0.517 -1.426-0.839c-0.466 0.259-0.898 0.529-1.318 0.804l0.004 0.009 -0.489 0.55 0.781 0.799 -1.052 0.574 0.398 0.657 1.857 0.185 -1.741 1.181 1.863-0.103 -0.982 1.693 2.297-1.39 -0.618 2.364 1.329-2.184 0.256 2.343 0.384-2.072 0.353-0.043 0.5 2.35 0.152-0.705c0.201-0.052 0.718 0.704 0.915 0.651L74.736 86.5l1.282 2.556 -0.52-2.651 1.578 2.05c0.057-0.018 0.196-0.85 0.252-0.867l-0.982-1.469 1.785 0.539 -1.071-1.16 -0.86-0.712 3.586 0.803 -1.997-1.217 1.411-0.577 -3.055-0.309 3.021-1.602 -2.734 0.698 -0.736-0.399 -0.181-0.354 0.052-0.846 0.061-1.389 -1.248 2.198 -0.11-1.609 -0.157-0.421c-0.25 0.087-0.495 0.172-0.736 0.265L73.265 80.413z" fill="#36120f" stroke-width="none" opacity="1"></path><path id="SvgjsPath5168" d="M79.856 82.755c-5.242 0.239-7.907 1.36-11.707 2.631 -0.732-3.229 1.298-6.438 4.53-7.164S79.125 79.525 79.856 82.755z" fill="#180302" stroke-width="none" opacity="0.9"></path><path id="SvgjsPath5169" d="M74.869 81.998c-1.319-0.378-2.666 0.375-3.005 1.69 -0.342 1.308 0.452 2.678 1.771 3.056 1.32 0.379 2.667-0.375 3.009-1.684C76.987 83.745 76.19 82.376 74.869 81.998z" fill="#000000" stroke-width="none" opacity="0.8"></path><path id="SvgjsPath5170" d="M74.869 81.998c-1.319-0.378-2.666 0.375-3.005 1.69 -0.342 1.308 0.452 2.678 1.771 3.056 1.32 0.379 2.667-0.375 3.009-1.684C76.987 83.745 76.19 82.376 74.869 81.998z" fill="none" stroke="#000000" stroke-width="0.75" opacity="1"></path><path id="SvgjsPath5171" d="M69.631 87.56c0.613 0.973 1.426 1.706 2.578 1.95 1.326 0.281 1.477-1.483 0.528-1.685 -0.72-0.152-1.176-0.505-1.552-1.102C70.497 85.63 69.079 86.684 69.631 87.56L69.631 87.56z" fill="#ffffff" stroke-width="none" opacity="0.4"></path><path id="SvgjsPath5172" d="M75.033 81.493c0.929 0.187 1.469 0.768 1.938 1.64 0.862 1.604 3.299 0.178 2.437-1.425 -0.757-1.408-2.019-2.613-3.625-2.938C73.726 78.355 73.438 81.171 75.033 81.493L75.033 81.493z" fill="url(#SvgjsLinearGradient5173)" opacity="1"></path></g></g></g><g id="svga-group-eyesfront-left"><path id="SvgjsPath5596" d="M53.729 84.098c-0.382 3.304 9.854 22.004 20.071 22.004s19.5-5.292 19.5-22.003c0-17.789-9.283-22.001-19.5-22.001S55.626 67.704 53.729 84.098zM60.8 85.053l-0.1-4.149c1.328-3.949 19.541-4.352 25.9 1.784 1.396 3.231-0.409 5.477-3.529 6.438 -3.293-0.784-4.969 1.059-9.809 1.166 -8.057 0.177-9.938-0.618-11.199-2.638C61.54 86.816 61.04 85.726 60.8 85.053z" fill="#f0c7b1" stroke-width="none" opacity="1"></path><path id="SvgjsPath5597" d="M59.698 82.412c0.023 7.534 7.646 13.604 17.038 13.566 9.389-0.043 16.985-6.179 16.961-13.713 -0.023-7.533-7.647-13.605-17.04-13.566C67.265 68.743 59.673 74.878 59.698 82.412zM60.8 85.053l-0.1-4.149c1.328-3.949 19.541-4.352 25.9 1.784 1.396 3.231-0.409 5.477-3.529 6.438 -3.293-0.784-4.969 1.059-9.809 1.166 -8.057 0.177-9.938-0.618-11.199-2.638C61.54 86.816 61.04 85.726 60.8 85.053z" fill="url(#SvgjsRadialGradient5598)" opacity="1"></path><path id="SvgjsPath5602" d="M62.063 87.654c-0.523-0.837-1.023-1.928-1.264-2.601l-0.1-4.149c1.328-3.949 19.541-4.352 25.9 1.784 1.396 3.231-0.409 5.477-3.529 6.438 -3.293-0.784-4.969 1.059-9.809 1.166C65.206 90.469 63.324 89.673 62.063 87.654z" fill="url(#SvgjsRadialGradient5603)" opacity="1"></path><path id="SvgjsPath5606" d="M89.465 81.193c-9.617-5.761-16.701-6.128-28.117-5.394C70.877 74.298 81.852 75.387 89.465 81.193z" fill="#c27b55" stroke-width="none" opacity="1"></path><path id="SvgjsPath5607" d="M88.23 85.283c-3.24-8.315-25.943-8.364-27.431-4.181v3.895c-1.021-1.539-1.047-1.633-1.483-3.404l-2.195 0.746c0 0 2.746-3.873 5.299-4.381C84.606 73.539 88.04 83.949 88.23 85.283zM84.743 89.42c-4.625-1.98-5.94 0.378-11.563 0.495 -8.004 0.168-9.567-0.766-11.125-2.476 0.813 2.091 1.375 3.085 10.875 3.027C78.306 90.433 81.243 88.212 84.743 89.42z" fill="#000000" stroke-width="none" opacity="1"></path></g></g><g id="svga-group-eyes-right" ><g id="svga-group-eyesback-right"><path id="SvgjsPath5579" d="M116.529 89.125c3.293-0.784 4.969 1.059 9.809 1.166 8.057 0.177 9.938-0.618 11.199-2.638 0.523-0.837 1.023-1.928 1.264-2.601l0.1-4.149c-1.328-3.949-19.541-4.352-25.9 1.784 -0.287 0.666-0.433 1.287-0.465 1.867 0.19 0.958 0.512 1.878 0.947 2.749C114.189 88.113 115.245 88.729 116.529 89.125z" fill="url(#SvgjsRadialGradient5580)" opacity="1"></path></g><g id="svga-group-eyesiriswrapper-right" transform="translate(-0.25 0.25)"><g id="svga-group-eyesiriscontrol-right" ><g id="svga-group-eyesiris-right" ><path id="SvgjsPath5176" d="M131.788 85.587c-0.869 3.193-4.16 5.074-7.358 4.196 -3.195-0.876-5.082-4.178-4.212-7.371 0.867-3.195 4.167-5.076 7.361-4.198C130.774 79.091 132.658 82.393 131.788 85.587z" fill="#270907" stroke="#000000" stroke-width="0.5" opacity="1"></path><path id="SvgjsPath5177" d="M125.266 80.413l-0.155-0.278c-0.548 0.217-1.076 0.445-1.576 0.686l0.37 0.894 -0.047 0.517 -1.426-0.839c-0.467 0.259-0.898 0.529-1.317 0.804l0.004 0.009 -0.49 0.551 0.782 0.799 -1.052 0.573 0.397 0.657 1.857 0.185 -1.741 1.181 1.863-0.103 -0.982 1.692 2.296-1.39 -0.616 2.364 1.328-2.184 0.257 2.343 0.384-2.073 0.353-0.043 0.501 2.35 0.151-0.704c0.201-0.052 0.719 0.703 0.915 0.651l-0.585-2.556 1.283 2.556 -0.521-2.651 1.577 2.05c0.057-0.018 0.197-0.85 0.253-0.867l-0.982-1.469 1.786 0.538 -1.071-1.16 -0.859-0.712 3.586 0.802 -1.997-1.216 1.411-0.577 -3.054-0.308 3.021-1.603 -2.734 0.698 -0.736-0.399 -0.18-0.354 0.052-0.847 0.061-1.388 -1.247 2.198 -0.11-1.609 -0.156-0.422c-0.25 0.087-0.495 0.173-0.735 0.265L125.266 80.413z" fill="#36120f" stroke-width="none" opacity="1"></path><path id="SvgjsPath5178" d="M131.855 82.755c-5.24 0.239-7.906 1.36-11.706 2.631 -0.731-3.229 1.298-6.438 4.53-7.164C127.911 77.495 131.126 79.525 131.855 82.755z" fill="#180302" stroke-width="none" opacity="0.9"></path><path id="SvgjsPath5179" d="M126.87 81.998c-1.319-0.378-2.666 0.376-3.005 1.69 -0.343 1.308 0.451 2.678 1.77 3.056 1.322 0.379 2.668-0.375 3.009-1.684C128.987 83.745 128.189 82.376 126.87 81.998z" fill="#000000" stroke-width="none" opacity="0.8"></path><path id="SvgjsPath5180" d="M126.87 81.998c-1.319-0.378-2.666 0.376-3.005 1.69 -0.343 1.308 0.451 2.678 1.77 3.056 1.322 0.379 2.668-0.375 3.009-1.684C128.987 83.745 128.189 82.376 126.87 81.998z" fill="none" stroke="#000000" stroke-width="0.75" opacity="1"></path><path id="SvgjsPath5181" d="M121.632 87.56c0.612 0.973 1.426 1.706 2.577 1.95 1.326 0.281 1.478-1.482 0.528-1.685 -0.72-0.152-1.177-0.504-1.552-1.102C122.498 85.63 121.079 86.684 121.632 87.56L121.632 87.56z" fill="#ffffff" stroke-width="none" opacity="0.4"></path><path id="SvgjsPath5182" d="M127.034 81.493c0.929 0.187 1.469 0.767 1.938 1.639 0.862 1.604 3.3 0.178 2.437-1.425 -0.757-1.408-2.018-2.613-3.625-2.938C125.727 78.355 125.438 81.171 127.034 81.493L127.034 81.493z" fill="url(#SvgjsLinearGradient5183)" opacity="1"></path></g></g></g><g id="svga-group-eyesfront-right"><path id="SvgjsPath5617" d="M125.801 62.098c-10.217 0-19.5 4.212-19.5 22.001 0 16.711 9.283 22.003 19.5 22.003s19.891-18.032 20.07-22.004C146.617 67.611 136.018 62.098 125.801 62.098zM137.537 87.654c-1.261 2.02-3.143 2.815-11.199 2.638 -4.84-0.107-6.516-1.95-9.809-1.166 -3.12-0.961-4.925-3.207-3.529-6.438 6.359-6.136 24.572-5.733 25.9-1.784l-0.1 4.149C138.561 85.726 138.061 86.816 137.537 87.654z" fill="#f0c7b1" stroke-width="none" opacity="1"></path><path id="SvgjsPath5618" d="M122.943 68.699c-9.393-0.04-17.016 6.033-17.039 13.566 -0.025 7.535 7.572 13.67 16.961 13.713 9.391 0.037 17.014-6.033 17.037-13.566C139.928 74.878 132.336 68.743 122.943 68.699zM137.537 87.654c-1.261 2.02-3.143 2.815-11.199 2.638 -4.84-0.107-6.516-1.95-9.809-1.166 -3.12-0.961-4.925-3.207-3.529-6.438 6.359-6.136 24.572-5.733 25.9-1.784l-0.1 4.149C138.561 85.726 138.061 86.816 137.537 87.654z" fill="url(#SvgjsRadialGradient5619)" opacity="1"></path><path id="SvgjsPath5623" d="M137.537 87.654c0.523-0.837 1.023-1.928 1.264-2.601l0.1-4.149c-1.328-3.949-19.541-4.352-25.9 1.784 -1.396 3.231 0.409 5.477 3.529 6.438 3.293-0.784 4.969 1.059 9.809 1.166C134.395 90.469 136.276 89.673 137.537 87.654z" fill="url(#SvgjsRadialGradient5624)" opacity="1"></path><path id="SvgjsPath5627" d="M110.136 81.193c9.617-5.761 16.701-6.128 28.117-5.394C128.724 74.298 117.749 75.387 110.136 81.193z" fill="#c27b55" stroke-width="none" opacity="1"></path><path id="SvgjsPath5628" d="M137.181 77.957c2.553 0.508 5.299 4.381 5.299 4.381l-2.195-0.746c-0.437 1.771-0.463 1.865-1.483 3.404v-3.895c-1.487-4.183-24.19-4.134-27.431 4.181C111.561 83.949 114.994 73.539 137.181 77.957zM126.67 90.467c9.5 0.058 10.063-0.937 10.875-3.027 -1.558 1.71-3.121 2.644-11.125 2.476 -5.622-0.117-6.938-2.476-11.563-0.495C118.357 88.212 121.295 90.433 126.67 90.467z" fill="#000000" stroke-width="none" opacity="1"></path></g></g><g id="svga-group-facehighlight-single" ><path id="SvgjsPath2885" d="M141 113.974c0.035 22.622-18.292 40.994-40.938 41.025 -22.642 0.037-41.028-18.273-41.063-40.9 -0.035-22.62 18.292-41.064 40.937-41.1C122.579 72.964 140.967 91.349 141 113.974z" fill="url(#SvgjsRadialGradient2886)" opacity="1"></path><path id="SvgjsPath2889" d="M137.5 53.999c0 20.711-16.789 37.5-37.499 37.5 -20.711 0-37.501-16.789-37.501-37.5s16.79-37.5 37.501-37.5C120.711 16.499 137.5 33.288 137.5 53.999z" fill="url(#SvgjsRadialGradient2890)" opacity="1"></path></g><g id="svga-group-eyebrows-left" ><path id="SvgjsPath5212" d="M54 74.189c9.954-9.974 16.761-5.915 30.589-3.264 0.845 0.162 6.32 1.539 5.31 3.469 -0.483 0.924-2.036 0.814-2.903 0.798C73.308 74.936 66.652 65.197 54 74.189z" fill="#2a232b" stroke-width="none" opacity="1"></path></g><g id="svga-group-eyebrows-right" ><path id="SvgjsPath5213" d="M146 74.189c-9.953-9.974-16.761-5.915-30.589-3.264 -0.846 0.162-6.32 1.539-5.311 3.469 0.483 0.924 2.036 0.814 2.903 0.798C126.691 74.936 133.348 65.197 146 74.189z" fill="#2a232b" stroke-width="none" opacity="1"></path></g><g id="svga-group-nose-single" ><path id="SvgjsPath3125" d="M91.115 115.499c-0.878 2.064 5.934 4.292 8.519 4.429 2.8 0.147 10.646-2.9 9.316-4.992 -1.399-2.195-6.643-0.286-8.906-0.286C97.792 114.649 92.291 112.745 91.115 115.499z" fill="#e1ac8f" stroke-width="none" opacity="1"></path><path id="SvgjsPath3126" d="M101.857 117.058c-0.23-0.759 1.876-1.584 2.657-1.694 1.101-0.16 3.36 0.802 3.158 1.592 -0.184 0.698-2.148-0.533-2.86-0.429C104.078 116.634 102.075 117.769 101.857 117.058zM94.974 116.811c0.968 0 2.404 0.623 2.668 0.074 0.315-0.655-2.139-1.461-2.86-1.372 -0.596 0.07-2.733 1.315-2.439 1.839C92.617 117.833 93.698 116.811 94.974 116.811z" fill="#c27b55" stroke-width="none" opacity="1"></path><path id="SvgjsPath3127" d="M100.089 111.999c0.607 0 1.742-0.74 1.792-2.23 0.201-6.008-0.956-23.833-1.792-23.77 -0.78 0.059-2.267 17.637-1.948 23.77C98.22 111.271 99.404 111.999 100.089 111.999z" fill="#fff5ef" stroke-width="none" opacity="0.2"></path></g><g id="svga-group-beardwrap" ><g id="svga-group-beard-single" ><path id="SvgjsPath5400" d="M100,18.13L100,18.13L100,18.13L100,18.13z" fill="#2a232b" stroke-width="none" opacity="1"></path></g></g><g id="svga-group-mustache-single" ><path id="SvgjsPath3902" d="M100,18.13L100,18.13L100,18.13L100,18.13z" fill="#2a232b" stroke-width="none" opacity="1"></path></g><g id="svga-group-hair-front" ><path id="SvgjsPath5679" d="M152.983 98.604c-4.563-12.435 0.717-31.506-8.205-45.615 -4.064-6.762-7.597-11.409-6.95-19.276l-0.368-0.124c-0.862 1.352-1.994 2.82-2.745 3.76 0.427-1.091 1.123-2.762 1.753-4.023l-0.332-0.218c-2.585 3.073-4.805 4.649-7.859 5.5 3.3-2.32 6.949-6.357 8.546-8.595l-0.271-0.284c-11.319 7.283-24.164 7.382-35.496 7.471 -10.227 0.076-16.579-0.155-23.953-4.441 -5.321 1.764-9.511 1.539-14.116-1.635 -14.414 27.947-8.01 13.957-16.627 65.764 -5.004-6.67-6.458-10.912-7.642-17.267 -0.313-2.027-0.619-5.154-0.429-7.215l-0.063-0.065c-4.452-9.77-6.553-15.333-5.495-34.712 0.785-8.04 2.533-14.076 7.574-20.398 -0.665-3.435-0.729-6.898-0.277-10.21 -2.64-4.827-4.457-9.795-5.165-11.57 3.688 2.823 3.993 2.986 7.07 3.957 0.704-1.937 1.73-3.861 2.387-4.865 0.297 2.238 0.533 3.75 1.203 5.925 0.228 0.055 1.313 0.349 1.66 0.442 -0.199-1.324-0.381-1.938-0.353-3.125 0.571 1.302 1.053 1.604 2.71 3.626 1.834 0.385 1.394 0.328 1.944 0.328 -2.669-4.183-4.47-7.885-4.927-13.515 3.653 2.081 8.764 3.27 14.101 3.27 12.539 0 25.369-9.412 43.169-9.412 15.425 0 28.771 8.558 34.683 18.303 -0.006-2.514-0.113-4.594 0.794-7.178 0 0 0.105 3.705 0.105 6.592l0.396 0.037c0.62-3.301 1.928-6.115 4.088-8.773 -1.918 5.158-1.188 2.404-3.334 8.702l0.348 0.187c1.431-1.839 2.603-3.139 6.019-4.862 -2.468 2.473-4.355 3.89-5.522 5.639l0.301 0.259c1.456-1.32 2.971-1.82 4.512-0.613 -2.481-0.902-3.946 0.679-5.648 2.675 6.619 1.091 10.21 4.91 14.864 10.015 10.712 12.352 13.533 24.411 7.723 41.506 2.435 5.263 2.06 17.125-3.375 26.686C159.779 86.867 155.941 93.789 152.983 98.604z" fill="#2a232b" stroke-width="none" opacity="1"></path><path id="SvgjsPath5680" d="M62.299 30.371c0.359 0.334 0.718 0.668 1.074 1.004 -0.129-0.085-0.258-0.164-0.388-0.253 -14.414 27.947-8.01 13.957-16.627 65.764 -5.004-6.67-6.458-10.912-7.642-17.267 -0.313-2.027-0.619-5.154-0.429-7.215l-0.063-0.065c-4.452-9.77-6.553-15.333-5.495-34.712 0.785-8.04 2.533-14.076 7.574-20.398 -0.654-3.378-0.72-6.782-0.293-10.044 0.597 0.874 1.223 1.725 1.863 2.565C42.304 12.374 42.669 14.933 42 17c-9.539 29.478-4 43 2 64 -2.464-15.931-7.142-36.185 5.619-48C44.168 46.096 45.673 52.034 47 61 47.917 49.082 52.195 37.996 62.299 30.371zM155.432 13.06c-0.376-0.412-0.742-0.812-1.106-1.207 -0.382 0.255-0.774 0.489-1.159 0.737 14.956 30.661 0.594 27.717 4.017 41.409C161.183 63.999 156 70 156 80c0-15-0.681-25.439-8.96-37.175 -2.796-3.963-3.581-17.423-5.465-24.074C118.373 33 84.002 35.981 47.916 7.183c17 6 51.649 1.35 63.543-6.316 -13.558 2.461-41.862 2.608-54.59-2.631 30.5-2.37 30.131-12.16 56.131-14C100.5-20.431 73.196-8.51 60.658-8.51c-5.336 0-10.447-1.188-14.101-3.27 0.457 5.63 2.258 9.333 4.927 13.515 -0.551 0-0.11 0.057-1.944-0.328 -1.658-2.022-2.14-2.325-2.71-3.626 -0.029 1.187 0.154 1.801 0.353 3.125 -0.347-0.093-1.433-0.387-1.66-0.442 -0.67-2.175-0.906-3.687-1.203-5.925 -0.656 1.004-1.683 2.928-2.387 4.865 -3.078-0.971-3.382-1.134-7.07-3.957 0.708 1.775 2.525 6.744 5.165 11.57 -0.007 0.055-0.009 0.111-0.016 0.166 6.305 9.235 15.169 16.471 23.363 24.192 4.454 2.924 8.558 3.096 13.729 1.382 7.374 4.286 13.727 4.517 23.953 4.441 11.332-0.088 24.177-0.188 35.496-7.471l0.271 0.284c-1.597 2.238-5.246 6.275-8.546 8.595 3.055-0.852 5.274-2.428 7.859-5.5l0.332 0.218c-0.63 1.262-1.326 2.932-1.753 4.023 0.751-0.94 1.883-2.408 2.745-3.76l0.368 0.124c-0.646 7.868 2.886 12.514 6.95 19.276 8.922 14.109 3.643 33.181 8.205 45.615 2.958-4.815 6.796-11.736 6.796-17.352 5.435-9.561 5.81-21.423 3.375-26.686C168.965 37.471 166.144 25.412 155.432 13.06zM156.165 38.709c-0.33-9.524-6.633-21.612-6.633-21.612 -2.946-5.204-5.579-7.687-9.996-8.695 12.426 0.619 17.306 19.179 16.769 28.875C156.254 38.177 156.165 38.709 156.165 38.709zM127.907-1.507c3.283 2.663 4.067 3.423 7.296 7.909 -16.653-29.889-49.333-7.27-59.667-8C86.041 0.573 109.793-14.79 127.907-1.507zM136.369 11.485C116.408 28.033 85.929 21.023 61 13.21 85.827 24.581 117.435 30.734 136.369 11.485zM57.869 29.485c-6.539 3.425-9.616 12.05-9.9 17.75C49.19 42.316 52.854 33.291 57.869 29.485zM49.619 24.735c-9.359 5.699-11.174 18.771-10.25 29.75C40.353 44.343 42.181 31.11 49.619 24.735zM117.064 12.34c-1.006 0.215-7.259 1.072-10.672 1.195 -2.661 0.155-13.037 0.328-22.391-0.048 9.655 2.069 15.454 2.454 22.496 2.045 8.106-0.293 15.36-1.898 21.371-6.796C123.633 11.067 121.828 11.399 117.064 12.34zM150.609 38.885c0 0-0.256-0.441-0.588-1.102 -0.911-1.527-1.945-5.681-5.938-18.736 2.966 24.195 7.817 19.782 9.991 32.283C154.075 46.834 153.761 44.529 150.609 38.885z" fill="#1b141c" stroke-width="none" opacity="1"></path><path id="SvgjsPath5681" d="M157.853 68.131c0.364-3.246 0.217-1.758 0.257-3.61 0.306-6.244-3.426-11.479-1.154-18.987 1.854-5.453 2.925-6.308 2.113-15.801 -0.119-1.37-0.474-4.774-1.102-5.998 0.856 1.489 1.422 4.245 1.725 5.934 1.687 9.543 0.268 10.992-1.521 16.267C155.781 53.906 160.368 57.422 157.853 68.131zM141.575 18.751c1.117 30.37 7.276 23.316 12.717 41.752C150.598 38.757 147.181 56.786 141.575 18.751zM48.369 34.235c-9.19 11.563-8.262 19.899-6 37C42.165 53.925 40.055 47.355 48.369 34.235zM41.772 17.714c-5.274 16.319-6.429 23.684-3.897 41.285C37.406 41.353 37.518 37.458 41.772 17.714zM61.952 30.641C52.322 37.56 47.295 50.217 47 61 48.482 50.695 54.012 37.697 61.952 30.641zM128.855 24.594c-12.051 4.437-31.667 5.625-45.988 1.322C71.706 22.661 54.279 11.723 44.905 4.845c8.498 6.765 23.471 16.807 33.926 20.776 10.863 4.059 27.887 5.567 41.081 2.245 9.248-2.324 14.041-4.52 21.663-9.114C138.182 20.612 133.184 23.242 128.855 24.594zM102.813-11.594c12.167-2.285 26.509 5.558 34.057 14.83 -7.897-11.318-20.837-16.949-28.562-17.083C95.629-14.067 82.513-3.204 56.869-2.265 80.982-1.203 92.573-9.936 102.813-11.594zM112.369 1.235c-17.289 6.143-30.64 7.613-48.807 8.58C82.325 10.97 95.739 9.15 112.369 1.235zM130.536 4.738c-10.662 5.027-15.33 5.851-37.337 7.191C106.996 12.486 119.885 11.769 130.536 4.738zM95.248 20.023c10.644 1.237 29.289-0.105 38.621-9.788 -11.27 9.494-32.119 9.154-48.38 8.508C91.713 19.714 90.59 19.552 95.248 20.023zM140.869 10.735c7.629 2.809 9.489 16.193 12.5 27C152.022 28.156 149.721 12.813 140.869 10.735z" fill="#3a353a" stroke-width="none" opacity="1"></path><path id="SvgjsPath5682" d="M155.579 12.925c-4.348-4.769-8.252-8.97-14.63-10.02 2.094-2.463 3.566-3.379 6.25-1.85 -1.59-1.871-3.417-2.226-5.63-0.22 1.271-1.905 3.468-3.46 6.3-6.43 -4.231 1.985-5.503 3.34-7.12 5.42 2.285-6.703 1.3-3.128 3.72-9.75 -2.529 2.836-4.146 5.92-4.859 9.72 0-5.903-0.185-5.14-0.07-7.72 -1.387 3.089-1.229 5.81-1.229 7.59 -2.233-3.682-5.514-6.8-9.051-9.35 -25.054-18.289-50.039-1.456-63.58 0.58 -5.489 0.927-13.714 0.338-19.35-3.04 0.398 5.764 2.183 9.592 4.79 13.68 -0.001 0-1.47-0.31-1.47-0.31 -2.019-2.434-2.214-2.356-2.96-4.33 -0.191 1.763 0.101 2.74 0.25 3.74 -0.498-0.13-0.957-0.268-1.26-0.34 -0.743-2.414-0.958-4.25-1.23-6.29 -0.614 0.785-1.922 3.18-2.64 5.15 -2.999-0.948-3.214-1.099-7.43-4.33 0.5 1 2.309 6.461 5.44 12.23 -0.47 3.534-0.328 7.06 0.27 10.12 -5.025 6.312-6.77 12.346-7.56 20.44 -1.041 19.059 0.867 24.611 5.53 34.82 0.01 0.01 0.01 0.03 0.02 0.04 -0.177 1.971 0.119 5.102 0.44 7.18 1.179 6.332 2.625 10.693 7.91 17.65 0.02 0.02 0.03 0.05 0.05 0.07 3.395-20.368 3.045-20.867 3.77-25.89 3.572-25.712 3.417-21.872 12.81-40.07 3.813 2.628 8.035 3.552 14.02 1.56 4.342 2.524 8.776 4.45 21.06 4.45 12.171-0.152 26.176 0.412 38.52-7.53 -1.87 2.622-6.118 7.154-9.46 9.18 3.479-0.736 5.975-2.137 9.09-5.84 -0.957 1.915-2.083 4.814-2.17 5.16 0.15-0.18 2.15-2.57 3.51-4.7 -0.653 7.945 2.894 12.597 6.98 19.4 8.956 14.163 3.511 33.521 8.33 45.96 3.09-4.996 7.04-12.086 7.04-17.75 5.21-9.086 5.956-21.111 3.39-26.75C168.587 38.924 167.533 26.708 155.579 12.925zM46.789-2.465c0.488 1.389 0.595 1.359 2.49 3.61 -0.94-0.195-1.565-0.332-2.13-0.46C46.93-0.371 46.789-1.375 46.789-2.465zM44.279-5.125c0.094 1.532 0.459 3.542 0.99 5.31 -2.865-0.737-1.8-0.504-2.8-0.8C43.292-3.089 43.602-3.715 44.279-5.125zM45.999 95.095c-4.216-7.605-5.323-10.191-6.49-17.89 -0.114-0.886-0.472-3.446-0.49-4.67 -6.07-13.88-8.352-40.236 1.21-54.74 0-0.01 0-0.01 0-0.01s0.399-0.624 1.12-1.52c-0.267-1.344-0.531-4.18-0.44-7.28 0.74 1.32 1.58 2.52 2.33 3.67 0-0.003 0.59 0.781 0.59 0.8 4.551 5.79 8.754 10.604 18.92 17.75C50.544 50.979 51.301 44.3 45.999 95.095zM163.639 48.206c-0.356 2.358-1.123 5.583-1.539 6.99 2.78 7.068-0.257 20.417-3.061 26.38 -1.226 7.093-2.545 8.521-6.01 15.59 -2.477-11 2.583-30.519-6.76-45.08 -6.059-10.044-8.657-11.36-7.23-23.77 0 0 0.061-0.675 0.08-0.85 -12.628 7.721-26.576 8.594-44.97 8.2 -5.317 0-12.5-0.668-16.98-3.44 -9.081 2.583-12.45-1.437-20.01-7.34 -8.163-6.937-13.709-12.994-20.55-27.27 3.843 3.118 11.537 4.689 16.39 5.5 -3.273-4.363-5.199-8.349-6.07-14 3.48 2.32 11.82 4.603 19.17 3.79 13.534-1.271 32.484-15.167 55.77-4.63 10.804 4.767 16.286 11.476 17.57 15 0.01 0 0.02 0.01 0.04 0.01 0.06 0.02 0.12 0.03 0.189 0.04 0.017 0.018 0.332 0.09 0.36 0.09 6.976 2.325 7.443 2.759 14.2 10.64C158.026 18.715 167.168 28.016 163.639 48.206z" fill="#000000" stroke-width="none" opacity="1"></path></g><g id="svga-group-glasses-single" ><path id="SvgjsPath5245" d="M143.62 100.1c-2.36 2.2-6.23 3.04-13.56 3.04 -9.78 0-16.18-1.09-20.41-9.51 -3.29-6.54-4.62-13.56-3.02-15.98 2.21-3.34 8.57-5.61 15.67-6.28C134.63 77.23 143.29 88.98 143.62 100.1zM72.01 71.17c-7.64 0.21-15.09 2.35-18.27 7.05 -2.18 3.21-1.69 12.55-0.22 16.94 2 5.99 5.07 7.98 16.42 7.98 9.78 0 16.18-1.09 20.41-9.51 0.42-0.84 0.81-1.69 1.17-2.54C88.29 82.95 81.16 75.43 72.01 71.17z" fill="#ffffff" stroke-width="none" opacity="0.2"></path><path id="SvgjsPath5246" d="M146.48 95.17c-0.71 2.12-1.56 3.73-2.86 4.94 -0.33-11.12-8.99-22.87-21.33-28.74 9.37-0.89 19.99 0.99 23.97 6.86C148.44 81.44 147.95 90.77 146.48 95.17zM93.38 77.65c-2.79-4.23-12.22-6.73-21.37-6.47 9.16 4.25 16.28 11.77 19.52 19.92C93.94 85.36 94.77 79.76 93.38 77.65z" fill="#ffffff" stroke-width="none" opacity="0.4"></path><path id="SvgjsPath5247" d="M151.79 73.61c-10.18-5.46-36.14-7.01-45.5 0.15 -0.8 0.47-4.23-0.53-6.29-0.53 -1.95 0-5.42 1.05-6.29 0.53 -9.36-7.16-35.32-5.61-45.5-0.15 -1.46 0.79-1.62 4.51-0.35 5.08 0.91 0.41 1.51 0.98 1.46 1.98C49 86.29 50.55 93.59 51.23 95.6c0.87 2.59 2.44 7.41 9.29 8.6 5.83 1.01 16.43 1.48 21.94-0.17 9.99-2.98 14.24-18.04 14.42-23.17l0.01 0.02c0.4-1.8 5.82-1.8 6.23 0l0.01-0.02c0.17 5.13 4.43 20.19 14.42 23.17 5.51 1.65 16.11 1.18 21.94 0.17 6.85-1.19 8.42-6.01 9.29-8.6 0.68-2.02 2.23-9.31 1.92-14.93 -0.05-1 0.56-1.57 1.46-1.98C153.41 78.12 153.25 74.4 151.79 73.61zM81.41 101.36c-5.06 1.51-14.32 1.61-19.71 0.67 -4.54-0.79-6.44-3.26-7.7-7.03 -1.48-4.4-1.87-13.51 0.16-16.5 6.76-9.98 33.87-8.05 38.8-0.58C95.16 81.27 90.89 98.53 81.41 101.36zM146 95.01c-1.26 3.77-3.17 6.24-7.7 7.03 -5.39 0.94-14.65 0.84-19.71-0.67 -9.48-2.83-13.75-20.09-11.55-23.44 4.93-7.47 32.04-9.4 38.8 0.58C147.87 81.49 147.48 90.61 146 95.01z" fill="#26120b" stroke-width="none" opacity="1"></path><path id="SvgjsPath5248" d="M118.58 101.32c2.79 0.83 6.86 1.24 10.85 1.27 -12.54 1.22-15.39-3.4-17.12-5.16 -3.52-3.59-5.69-8.95-5.85-16.65C106.49 86.86 110.76 98.99 118.58 101.32zM93.69 73.72c-9.36-7.16-35.32-5.62-45.5-0.15C71.43 67.05 84.93 70.42 93.69 73.72zM61.68 102c-4.54-0.79-6.44-3.26-7.7-7.03 -1.32-3.93-1.77-11.62-0.4-15.35 -1.83 4.22-1.12 12.39 0.26 16.5 1.6 4.8 4.54 7.18 17.34 6.46C67.71 102.65 64.25 102.44 61.68 102zM152.97 76.3c-0.04-1.13-0.45-2.32-1.2-2.73 -9.98-5.36-35.14-6.94-44.93-0.25C120 68.05 138.97 67.31 152.97 76.3z" fill="#351d15" stroke-width="none" opacity="1"></path></g></g></g><rect id="SvgjsRect1036" width="200" height="15" x="0" y="185" fill="#ecf0f1" opacity="0.5" style="display:none;"></rect><text id="SvgjsText1037" font-family="&quot;Roboto&quot;, &quot;Helvetica Neue&quot;, Helvetica, Arial, sans-serif" style="font-size:0.84em;font-family:&quot;Roboto&quot;, &quot;Helvetica Neue&quot;, Helvetica, Arial, sans-serif;text-anchor:middle;font-weight:400;display:none;" font-size="0.84em" text-anchor="middle" font-weight="400" fill="#000000" x="100" y="185"><tspan id="SvgjsTspan1038" dy="1.2em" x="100" style="font-size:0.84em;font-family:&quot;Roboto&quot;, &quot;Helvetica Neue&quot;, Helvetica, Arial, sans-serif;text-anchor:middle;font-weight:400;">Created on AvatarMaker.com</tspan></text></g><defs id="SvgjsDefs1001"><radialGradient id="SvgjsRadialGradient2886" cx="100" cy="114" r="41" gradientUnits="userSpaceOnUse" class="svga-on-canvas-facehighlight-gradient-single-0"><stop id="SvgjsStop2887" stop-opacity="0.5" stop-color="#ffe4d6" offset="0" ></stop><stop id="SvgjsStop2888" stop-opacity="0" stop-color="#f0c7b1" offset="0.9" ></stop></radialGradient><radialGradient id="SvgjsRadialGradient2890" cx="100" cy="54" r="37" gradientUnits="userSpaceOnUse" class="svga-on-canvas-facehighlight-gradient-single-1"><stop id="SvgjsStop2891" stop-opacity="0.5" stop-color="#ffe4d6" offset="0" ></stop><stop id="SvgjsStop2892" stop-opacity="0" stop-color="#f0c7b1" offset="0.9" ></stop></radialGradient><radialGradient id="SvgjsRadialGradient5070" cx="-582.838" cy="-519.099" r="59.745" gradientTransform="matrix(0.0991 8.856319e-004 -0.0011 0.0991 131.1134 135.9855)" gradientUnits="userSpaceOnUse" class="svga-on-canvas-eyesiris-gradient-left-2"><stop id="SvgjsStop5071" stop-opacity="1" stop-color="#ffffff" offset="0" ></stop><stop id="SvgjsStop5072" stop-opacity="0" stop-color="#ffffff" offset="1" ></stop></radialGradient><linearGradient id="SvgjsLinearGradient5076" x1="122.67" y1="88.268" x2="123.606" y2="87.152" gradientTransform="matrix(1 0 0 1 -52 0)" gradientUnits="userSpaceOnUse" class="svga-on-canvas-eyesiris-gradient-left-5"><stop id="SvgjsStop5077" stop-opacity="1" stop-color="#ffffff" offset="0" ></stop><stop id="SvgjsStop5078" stop-opacity="0" stop-color="#ffffff" offset="1" ></stop></linearGradient><linearGradient id="SvgjsLinearGradient5084" x1="129.636" y1="79.822" x2="127.91" y2="81.879" gradientTransform="matrix(1 0 0 1 -52 0)" gradientUnits="userSpaceOnUse" class="svga-on-canvas-eyesiris-gradient-left-7"><stop id="SvgjsStop5085" stop-opacity="1" stop-color="#ffffff" offset="0" ></stop><stop id="SvgjsStop5086" stop-opacity="0" stop-color="#ffffff" offset="1" ></stop></linearGradient><radialGradient id="SvgjsRadialGradient5093" cx="-582.833" cy="-519.102" r="59.747" gradientTransform="matrix(0.0991 8.856319e-004 -0.0011 0.0991 183.1126 135.9856)" gradientUnits="userSpaceOnUse" class="svga-on-canvas-eyesiris-gradient-right-2"><stop id="SvgjsStop5094" stop-opacity="1" stop-color="#ffffff" offset="0" ></stop><stop id="SvgjsStop5095" stop-opacity="0" stop-color="#ffffff" offset="1" ></stop></radialGradient><linearGradient id="SvgjsLinearGradient5099" x1="122.67" y1="88.268" x2="123.606" y2="87.152" gradientUnits="userSpaceOnUse" class="svga-on-canvas-eyesiris-gradient-right-5"><stop id="SvgjsStop5100" stop-opacity="1" stop-color="#ffffff" offset="0" ></stop><stop id="SvgjsStop5101" stop-opacity="0" stop-color="#ffffff" offset="1" ></stop></linearGradient><linearGradient id="SvgjsLinearGradient5107" x1="129.636" y1="79.822" x2="127.91" y2="81.879" gradientUnits="userSpaceOnUse" class="svga-on-canvas-eyesiris-gradient-right-7"><stop id="SvgjsStop5108" stop-opacity="1" stop-color="#ffffff" offset="0" ></stop><stop id="SvgjsStop5109" stop-opacity="0" stop-color="#ffffff" offset="1" ></stop></linearGradient><linearGradient id="SvgjsLinearGradient5146" x1="127.637" y1="79.822" x2="125.91" y2="81.88" gradientTransform="matrix(1 0 0 1 -50 0)" gradientUnits="userSpaceOnUse" class="svga-on-canvas-eyesiris-gradient-left-1"><stop id="SvgjsStop5147" stop-opacity="1" stop-color="#ffffff" offset="0" ></stop><stop id="SvgjsStop5148" stop-opacity="0" stop-color="#ffffff" offset="1" ></stop></linearGradient><linearGradient id="SvgjsLinearGradient5151" x1="129.637" y1="79.823" x2="127.91" y2="81.881" gradientUnits="userSpaceOnUse" class="svga-on-canvas-eyesiris-gradient-right-1"><stop id="SvgjsStop5152" stop-opacity="1" stop-color="#ffffff" offset="0" ></stop><stop id="SvgjsStop5153" stop-opacity="0" stop-color="#ffffff" offset="1" ></stop></linearGradient><linearGradient id="SvgjsLinearGradient5173" x1="132" y1="78" x2="126" y2="84" gradientTransform="matrix(1 0 0 1 -50 0)" gradientUnits="userSpaceOnUse" class="svga-on-canvas-eyesiris-gradient-left-6"><stop id="SvgjsStop5174" stop-opacity="1" stop-color="#ffffff" offset="0" ></stop><stop id="SvgjsStop5175" stop-opacity="0" stop-color="#ffffff" offset="1" ></stop></linearGradient><linearGradient id="SvgjsLinearGradient5183" x1="132" y1="78" x2="126" y2="84" gradientUnits="userSpaceOnUse" class="svga-on-canvas-eyesiris-gradient-right-6"><stop id="SvgjsStop5184" stop-opacity="1" stop-color="#ffffff" offset="0" ></stop><stop id="SvgjsStop5185" stop-opacity="0" stop-color="#ffffff" offset="1" ></stop></linearGradient><linearGradient id="SvgjsLinearGradient5227" x1="130" y1="69" x2="130" y2="109" gradientUnits="userSpaceOnUse" class="svga-on-canvas-glasses-gradient-single-0"><stop id="SvgjsStop5228" stop-opacity="1" stop-color="#000000" offset="0" ></stop><stop id="SvgjsStop5229" stop-opacity="0.8" stop-color="#000000" offset="1" ></stop></linearGradient><linearGradient id="SvgjsLinearGradient5231" x1="130" y1="69" x2="130" y2="109" gradientTransform="matrix(-1 0 0 1 200 0)" gradientUnits="userSpaceOnUse" class="svga-on-canvas-glasses-gradient-single-1"><stop id="SvgjsStop5232" stop-opacity="1" stop-color="#000000" offset="0" ></stop><stop id="SvgjsStop5233" stop-opacity="0.8" stop-color="#000000" offset="1" ></stop></linearGradient><linearGradient id="SvgjsLinearGradient5318" x1="100" y1="142" x2="100" y2="139" gradientUnits="userSpaceOnUse" class="svga-on-canvas-mouth-gradient-single-0"><stop id="SvgjsStop5319" stop-opacity="1" stop-color="#e8b9a0" offset="0.1" ></stop><stop id="SvgjsStop5320" stop-opacity="1" stop-color="#e1ac8f" offset="1" ></stop></linearGradient><linearGradient id="SvgjsLinearGradient5328" x1="100" y1="171" x2="100" y2="130" gradientUnits="userSpaceOnUse" class="svga-on-canvas-chinshadow-gradient-single-0"><stop id="SvgjsStop5329" stop-opacity="0.8" stop-color="#e1ac8f" offset="0" ></stop><stop id="SvgjsStop5330" stop-opacity="1" stop-color="#c27b55" offset="0.7" ></stop></linearGradient><radialGradient id="SvgjsRadialGradient5572" cx="125.379" cy="82.93" r="12.84" gradientTransform="matrix(-1.0592 4.000000e-004 -4.000000e-004 0.9318 206.5112 5.1767)" gradientUnits="userSpaceOnUse" class="svga-on-canvas-eyesback-gradient-left-0"><stop id="SvgjsStop5573" stop-opacity="1" stop-color="#ffffff" offset="0" ></stop><stop id="SvgjsStop5574" stop-opacity="1" stop-color="#fdfefe" offset="0.544" ></stop><stop id="SvgjsStop5575" stop-opacity="1" stop-color="#f6f8f9" offset="0.74" ></stop><stop id="SvgjsStop5576" stop-opacity="1" stop-color="#eaeff2" offset="0.879" ></stop><stop id="SvgjsStop5577" stop-opacity="1" stop-color="#d9e3e8" offset="0.992" ></stop><stop id="SvgjsStop5578" stop-opacity="1" stop-color="#d8e2e7" offset="1" ></stop></radialGradient><radialGradient id="SvgjsRadialGradient5580" cx="125.001" cy="82.93" r="12.841" gradientTransform="matrix(1.0592 4.000000e-004 4.000000e-004 0.9318 -6.5112 5.1767)" gradientUnits="userSpaceOnUse" class="svga-on-canvas-eyesback-gradient-right-0"><stop id="SvgjsStop5581" stop-opacity="1" stop-color="#ffffff" offset="0" ></stop><stop id="SvgjsStop5582" stop-opacity="1" stop-color="#fdfefe" offset="0.544" ></stop><stop id="SvgjsStop5583" stop-opacity="1" stop-color="#f6f8f9" offset="0.74" ></stop><stop id="SvgjsStop5584" stop-opacity="1" stop-color="#eaeff2" offset="0.879" ></stop><stop id="SvgjsStop5585" stop-opacity="1" stop-color="#d9e3e8" offset="0.992" ></stop><stop id="SvgjsStop5586" stop-opacity="1" stop-color="#d8e2e7" offset="1" ></stop></radialGradient><radialGradient id="SvgjsRadialGradient5588" cx="125.379" cy="82.93" r="12.84" gradientTransform="matrix(-1.0592 4.000000e-004 -4.000000e-004 0.9318 206.5112 5.1767)" gradientUnits="userSpaceOnUse" class="svga-on-canvas-eyesfront-gradient-left-0"><stop id="SvgjsStop5589" stop-opacity="1" stop-color="#ffffff" offset="0" ></stop><stop id="SvgjsStop5590" stop-opacity="1" stop-color="#fdfefe" offset="0.544" ></stop><stop id="SvgjsStop5591" stop-opacity="1" stop-color="#f6f8f9" offset="0.74" ></stop><stop id="SvgjsStop5592" stop-opacity="1" stop-color="#eaeff2" offset="0.879" ></stop><stop id="SvgjsStop5593" stop-opacity="1" stop-color="#d9e3e8" offset="0.992" ></stop><stop id="SvgjsStop5594" stop-opacity="1" stop-color="#d8e2e7" offset="1" ></stop></radialGradient><radialGradient id="SvgjsRadialGradient5598" cx="123.218" cy="81.096" fx="133.802" fy="77.197" r="17.898" gradientTransform="matrix(0.9998 0.0183 0.0166 -0.7038 -47.7588 136.6255)" gradientUnits="userSpaceOnUse" class="svga-on-canvas-eyesfront-gradient-left-3"><stop id="SvgjsStop5599" stop-opacity="1" stop-color="#e1ac8f" offset="0" ></stop><stop id="SvgjsStop5600" stop-opacity="0.3" stop-color="#e1ac8f" offset="0.7" ></stop><stop id="SvgjsStop5601" stop-opacity="0" stop-color="#f0c7b1" offset="1" ></stop></radialGradient><radialGradient id="SvgjsRadialGradient5603" cx="79.496" cy="81.496" r="23.208" gradientTransform="matrix(1.0971 -0.0499 0.0576 0.9543 -20.1632 27.912)" gradientUnits="userSpaceOnUse" class="svga-on-canvas-eyesfront-gradient-left-4"><stop id="SvgjsStop5604" stop-opacity="0" stop-color="#000000" offset="0.9" ></stop><stop id="SvgjsStop5605" stop-opacity="0.2" stop-color="#000000" offset="1" ></stop></radialGradient><radialGradient id="SvgjsRadialGradient5609" cx="125.001" cy="82.93" r="12.841" gradientTransform="matrix(1.0592 4.000000e-004 4.000000e-004 0.9318 -6.5112 5.1767)" gradientUnits="userSpaceOnUse" class="svga-on-canvas-eyesfront-gradient-right-0"><stop id="SvgjsStop5610" stop-opacity="1" stop-color="#ffffff" offset="0" ></stop><stop id="SvgjsStop5611" stop-opacity="1" stop-color="#fdfefe" offset="0.544" ></stop><stop id="SvgjsStop5612" stop-opacity="1" stop-color="#f6f8f9" offset="0.74" ></stop><stop id="SvgjsStop5613" stop-opacity="1" stop-color="#eaeff2" offset="0.879" ></stop><stop id="SvgjsStop5614" stop-opacity="1" stop-color="#d9e3e8" offset="0.992" ></stop><stop id="SvgjsStop5615" stop-opacity="1" stop-color="#d8e2e7" offset="1" ></stop></radialGradient><radialGradient id="SvgjsRadialGradient5619" cx="122.818" cy="81.096" fx="133.402" fy="77.197" r="17.898" gradientTransform="matrix(-0.9998 0.0183 -0.0166 -0.7038 246.9601 136.6328)" gradientUnits="userSpaceOnUse" class="svga-on-canvas-eyesfront-gradient-right-3"><stop id="SvgjsStop5620" stop-opacity="1" stop-color="#e1ac8f" offset="0" ></stop><stop id="SvgjsStop5621" stop-opacity="0.3" stop-color="#e1ac8f" offset="0.7" ></stop><stop id="SvgjsStop5622" stop-opacity="0" stop-color="#f0c7b1" offset="1" ></stop></radialGradient><radialGradient id="SvgjsRadialGradient5624" cx="79.859" cy="81.511" r="23.208" gradientTransform="matrix(-1.0971 -0.0499 -0.0576 0.9543 220.163 27.9157)" gradientUnits="userSpaceOnUse" class="svga-on-canvas-eyesfront-gradient-right-4"><stop id="SvgjsStop5625" stop-opacity="0" stop-color="#000000" offset="0.9" ></stop><stop id="SvgjsStop5626" stop-opacity="0.2" stop-color="#000000" offset="1" ></stop></radialGradient></defs></svg>